<?xml version="1.0" encoding="UTF-8"?>
<svg version="1.1" xmlns="http://www.w3.org/2000/svg" width="500" height="500">
<path d="M0 0 C0.84812256 0.62962646 0.84812256 0.62962646 1.71337891 1.27197266 C29.07126794 21.70262888 51.81994979 47.89696047 69.3046875 77.16796875 C70.29291335 78.81880687 71.30715791 80.45553079 72.3828125 82.05078125 C75.41317669 86.65990161 75.80649176 90.65804224 75 96 C73.62608121 99.43980607 71.75236693 102.45476514 69.75 105.5625 C68.94115356 106.86078735 68.94115356 106.86078735 68.1159668 108.18530273 C62.86950814 116.47563625 57.09595781 124.31996713 51 132 C50.21882813 132.99386719 49.43765625 133.98773438 48.6328125 135.01171875 C36.09618456 150.64904292 21.95609164 165.81932232 6 178 C5.34467285 178.50998535 4.6893457 179.0199707 4.01416016 179.54541016 C-23.8995942 201.20058724 -56.75369393 217.73714463 -92 223 C-92.99555908 223.15227051 -92.99555908 223.15227051 -94.01123047 223.30761719 C-131.6185333 228.82555979 -170.17794127 224.21841619 -205 209 C-206.16740723 208.49146484 -206.16740723 208.49146484 -207.35839844 207.97265625 C-225.13649541 200.12240073 -240.75735661 189.99952777 -256 178 C-256.804375 177.37351562 -256.804375 177.37351562 -257.625 176.734375 C-265.5182237 170.53255638 -272.63216613 163.56569312 -279.75 156.5 C-280.62551514 155.63383057 -281.50103027 154.76766113 -282.40307617 153.87524414 C-296.79830175 139.40922013 -309.1000238 122.68095438 -319.875 105.375 C-320.65194214 104.16855835 -320.65194214 104.16855835 -321.44458008 102.93774414 C-324.71055127 97.53855064 -325.93997839 93.30052292 -325 87 C-320.99517596 73.29928617 -308.78137678 60.02974862 -300 49 C-299.27167969 48.07703125 -298.54335938 47.1540625 -297.79296875 46.203125 C-286.46933212 32.08428437 -273.92392608 18.46500567 -259.65771484 7.29833984 C-258.46695549 6.36572449 -257.28024787 5.4279272 -256.09619141 4.48681641 C-246.46891405 -3.1547919 -236.73654531 -10.01726997 -226 -16 C-225.3512793 -16.3707666 -224.70255859 -16.7415332 -224.03417969 -17.12353516 C-212.4863044 -23.70509496 -200.55055871 -28.65519604 -188 -33 C-187.27876953 -33.25265625 -186.55753906 -33.5053125 -185.81445312 -33.765625 C-122.57483529 -55.46844904 -52.46103661 -39.27524535 0 0 Z M-242 22 C-242.54543457 22.4439209 -243.09086914 22.8878418 -243.65283203 23.34521484 C-259.10061925 35.97136648 -273.21359153 50.1891058 -285.3125 66.0625 C-285.86574951 66.78622803 -286.41899902 67.50995605 -286.98901367 68.25561523 C-292.31539428 75.29391003 -297.2181644 82.58437685 -302 90 C-297.96239857 99.76536161 -291.47264637 107.76189165 -285 116 C-284.20980469 117.00675781 -283.41960937 118.01351562 -282.60546875 119.05078125 C-270.06239248 134.66747621 -255.94652346 149.82461385 -240 162 C-239.17145508 162.64316162 -239.17145508 162.64316162 -238.32617188 163.29931641 C-229.0305492 170.49041419 -219.44690989 176.62053604 -209 182 C-207.78884521 182.62503418 -207.78884521 182.62503418 -206.55322266 183.26269531 C-164.1785586 204.86546522 -116.50535112 209.11789174 -71 195 C-49.1922147 187.78428193 -28.39111146 176.76491231 -10.56201172 162.26953125 C-9.05239812 161.04258678 -7.52837151 159.83344182 -6.00390625 158.625 C8.25199135 147.00235737 21.9544323 133.7343705 33 119 C33.98080057 117.73492425 34.96265749 116.47066709 35.9453125 115.20703125 C41.93358641 107.43816016 47.34479285 99.65475132 52 91 C45.95454129 81.76142844 39.78971148 72.71406821 33 64 C32.32839844 63.13375 31.65679687 62.2675 30.96484375 61.375 C-4.29356355 17.08780429 -52.46229388 -14.22322423 -109.3125 -20.6875 C-157.5262605 -24.19395531 -204.74187775 -8.73535789 -242 22 Z " fill="#0396B0" transform="translate(375,167)"/>
<path d="M0 0 C20.6668362 16.34252536 33.5851786 37.86441706 37 64.0625 C39.64265924 88.07929044 33.20175382 112.20266468 18.40625 131.375 C3.23432073 150.19698762 -17.93877564 163.80096042 -42.3125 166.6875 C-70.22090369 168.7230793 -93.51855076 163.67449336 -115.3125 145.6875 C-116.8903125 144.511875 -116.8903125 144.511875 -118.5 143.3125 C-136.06075177 126.92246502 -147.10882999 103.6514756 -148.3125 79.6875 C-148.36535156 78.72714844 -148.41820312 77.76679688 -148.47265625 76.77734375 C-149.17807218 52.02644566 -139.99573743 30.09998427 -123.9453125 11.47265625 C-91.33094478 -23.02889298 -38.17451893 -27.42873532 0 0 Z M-108.3125 27.6875 C-121.10717248 41.39952636 -126.52500512 59.21764015 -126.3125 77.6875 C-125.06808031 98.79738316 -115.7112002 115.20739566 -100.5 129.375 C-86.52892082 141.01756599 -68.80674603 146.58162557 -50.703125 145.46484375 C-29.59868956 143.20990926 -12.79734673 134.13789252 0.9375 117.875 C12.13044564 103.31286466 17.02583003 85.48195173 15.21484375 67.25 C12.14594628 46.51789262 2.8811014 29.9354101 -13.875 17.25 C-45.07900783 -4.03747992 -82.35942114 1.51385674 -108.3125 27.6875 Z " fill="#0396B0" transform="translate(305.3125,183.3125)"/>
<path d="M0 0 C3.74672941 0.51428226 6.02560378 1.40487995 9.29272461 3.27587891 C10.36506348 3.88069092 11.43740234 4.48550293 12.54223633 5.10864258 C13.67806152 5.76968994 14.81388672 6.4307373 15.98413086 7.11181641 C17.18543238 7.79701793 18.38742963 8.48100099 19.59008789 9.16381836 C23.25426563 11.2509839 26.90127107 13.36701049 30.54663086 15.48681641 C31.62412598 16.11088379 32.70162109 16.73495117 33.81176758 17.37792969 C38.80886614 20.27437716 43.79444078 23.18905204 48.76928711 26.12353516 C52.6809511 28.42111467 56.62391516 30.64424757 60.60522461 32.81884766 C62.05759521 33.61995972 62.05759521 33.61995972 63.53930664 34.43725586 C65.36482748 35.44042303 67.19748942 36.43074766 69.03833008 37.40551758 C73.85532558 40.06779247 76.80848886 41.97271075 78.54663086 47.48681641 C78.22740429 51.06215402 77.71117736 53.3875839 75.03613281 55.91259766 C69.31712161 60.13953112 63.28363572 63.58410528 57.04663086 66.98681641 C48.25551276 71.84360765 39.52406083 76.78315874 30.85913086 81.86181641 C29.3605957 82.73616333 29.3605957 82.73616333 27.83178711 83.62817383 C23.60898927 86.09417768 19.39487665 88.57041561 15.21459961 91.10791016 C14.26556763 91.67469482 14.26556763 91.67469482 13.29736328 92.25292969 C11.70803568 93.20284715 10.12684559 94.16634673 8.54663086 95.13134766 C4.68753104 96.87497739 1.78722367 97.30131743 -2.45336914 97.48681641 C-5.36969911 96.32471149 -6.28110185 94.92399434 -8.45336914 92.48681641 C-9.73275239 88.22367852 -9.58475642 83.88304631 -9.55444336 79.47119141 C-9.55286728 78.67869995 -9.5512912 77.8862085 -9.54966736 77.06970215 C-9.54219905 74.4586672 -9.52619381 71.84779808 -9.50805664 69.23681641 C-9.50234776 68.34297241 -9.49663887 67.44912842 -9.49075699 66.52819824 C-9.45927522 61.80209029 -9.4203669 57.0761033 -9.3762207 52.35009766 C-9.33237355 47.47095754 -9.31663608 42.59213957 -9.30698967 37.71282959 C-9.29412693 33.95682055 -9.25943361 30.20123716 -9.21887589 26.44543457 C-9.20338903 24.64657799 -9.1962923 22.84762869 -9.19778061 21.04870605 C-9.19796003 18.53244975 -9.16704423 16.01836452 -9.12866211 13.50244141 C-9.13571671 12.76151245 -9.1427713 12.0205835 -9.15003967 11.25720215 C-9.05558198 7.36428321 -8.55579978 5.61761046 -6.1269989 2.51626587 C-3.45336914 0.48681641 -3.45336914 0.48681641 0 0 Z " fill="#FEDE5B" transform="translate(225.453369140625,209.51318359375)"/>
<path d="M0 0 C2.00974948 4.01949897 2.68425224 7.37223786 3.1875 11.75 C3.27354492 12.49644775 3.35958984 13.24289551 3.44824219 14.01196289 C4.57366507 25.10625088 3.68219615 36.16705242 1 47 C0.01 45.68 -0.98 44.36 -2 43 C-1.34 43 -0.68 43 0 43 C0 40.03 0 37.06 0 34 C0.66 34 1.32 34 2 34 C1.67 27.73 1.34 21.46 1 15 C0.34 14.67 -0.32 14.34 -1 14 C-0.67 9.38 -0.34 4.76 0 0 Z " fill="#1391A7" transform="translate(339,235)"/>
<path d="M0 0 C-0.33 0.99 -0.66 1.98 -1 3 C-2.98 3.33 -4.96 3.66 -7 4 C-6.67 4.99 -6.34 5.98 -6 7 C-6.66 7 -7.32 7 -8 7 C-8.33 7.66 -8.66 8.32 -9 9 C-9.99 8.34 -10.98 7.68 -12 7 C-12 6.34 -12 5.68 -12 5 C-13.95869403 5.81163009 -15.91694436 6.62433101 -17.875 7.4375 C-19.51082031 8.11619141 -19.51082031 8.11619141 -21.1796875 8.80859375 C-22.80558624 9.49543463 -24.42131774 10.21065887 -26 11 C-26.66 10.34 -27.32 9.68 -28 9 C-8.04854369 0 -8.04854369 0 0 0 Z " fill="#0395AF" transform="translate(234,167)"/>
<path d="M0 0 C2.04606333 1.69022623 2.94459329 2.83804192 3.8125 5.375 C4.03751456 8.5252038 3.49549186 10.23334006 2 13 C1.01 13.66 0.02 14.32 -1 15 C-1 14.01 -1 13.02 -1 12 C-1.99 12 -2.98 12 -4 12 C-3.34 10.68 -2.68 9.36 -2 8 C-1.01 8 -0.02 8 1 8 C0.67 5.36 0.34 2.72 0 0 Z " fill="#F6DF6A" transform="translate(300,251)"/>
<path d="M0 0 C1.99961564 0.03920815 4.00049364 0.04443347 6 0 C6 0.99 6 1.98 6 3 C7.98 3 9.96 3 12 3 C12 3.66 12 4.32 12 5 C4.5403037 4.25403037 -2.68951218 2.63253871 -10 1 C-10 0.67 -10 0.34 -10 0 C-3.375 -1.125 -3.375 -1.125 0 0 Z " fill="#1093A7" transform="translate(288,148)"/>
<path d="M0 0 C0.74958984 0.05220703 1.49917969 0.10441406 2.27148438 0.15820312 C4.11887082 0.28763784 5.96574371 0.42436518 7.8125 0.5625 C7.8125 0.8925 7.8125 1.2225 7.8125 1.5625 C5.08422635 2.06784727 2.35505306 2.56693845 -0.375 3.0625 C-1.14392578 3.20558594 -1.91285156 3.34867188 -2.70507812 3.49609375 C-6.58171773 4.19488715 -10.228971 4.75289017 -14.1875 4.5625 C-10.30917149 -1.16265162 -6.41769856 -0.48763299 0 0 Z " fill="#1493A5" transform="translate(221.1875,146.4375)"/>
<path d="M0 0 C-5.19040295 2.99446324 -10.61506293 3.12564256 -16.4921875 3.09765625 C-17.69101563 3.09443359 -18.88984375 3.09121094 -20.125 3.08789062 C-21.98125 3.07532227 -21.98125 3.07532227 -23.875 3.0625 C-25.13570312 3.05798828 -26.39640625 3.05347656 -27.6953125 3.04882812 C-30.79692386 3.0370796 -33.89843725 3.02065167 -37 3 C-37 2.67 -37 2.34 -37 2 C-30.59591595 0.88812 -24.42144641 0.95970858 -17.93945312 1.12695312 C-11.70205614 1.21171392 -5.92103197 -1.74147999 0 0 Z " fill="#1A93A9" transform="translate(273,347)"/>
<path d="M0 0 C5.07634826 1.7989503 9.63713611 4.49026455 14.3125 7.125 C15.14845703 7.59292969 15.98441406 8.06085938 16.84570312 8.54296875 C18.89866233 9.6926259 20.95002202 10.84503802 23 12 C22.01 12.66 21.02 13.32 20 14 C20 13.34 20 12.68 20 12 C17.69 11.67 15.38 11.34 13 11 C13 10.34 13 9.68 13 9 C11.3970947 8.18501438 9.79262722 7.37310073 8.1875 6.5625 C7.29417969 6.11003906 6.40085937 5.65757812 5.48046875 5.19140625 C2.96000522 3.9168395 2.96000522 3.9168395 0 3 C0 2.01 0 1.02 0 0 Z " fill="#F6DF80" transform="translate(268,233)"/>
<path d="M0 0 C-0.804375 0.61875 -1.60875 1.2375 -2.4375 1.875 C-5.03874519 3.74164041 -5.03874519 3.74164041 -6 6 C-8.76276177 5.47731534 -11.3260876 4.89130413 -14 4 C-14.33 4.66 -14.66 5.32 -15 6 C-15.99 5.34 -16.98 4.68 -18 4 C-15.37764986 3.13683464 -12.75266548 2.28419221 -10.125 1.4375 C-9.37863281 1.19064453 -8.63226563 0.94378906 -7.86328125 0.68945312 C-2.2265625 -1.11328125 -2.2265625 -1.11328125 0 0 Z " fill="#1292A7" transform="translate(312,360)"/>
<path d="M0 0 C5.91969002 1.75990784 11.41634992 4.39694605 17 7 C17 7.33 17 7.66 17 8 C15.02 8 13.04 8 11 8 C11 7.34 11 6.68 11 6 C9.68 5.67 8.36 5.34 7 5 C6.67 5.66 6.34 6.32 6 7 C5.34 6.67 4.68 6.34 4 6 C4 5.34 4 4.68 4 4 C3.34 4 2.68 4 2 4 C2 3.34 2 2.68 2 2 C1.34 2 0.68 2 0 2 C0 1.34 0 0.68 0 0 Z " fill="#188EA7" transform="translate(170,351)"/>
<path d="M0 0 C1.65 0 3.3 0 5 0 C1.43312878 3.04408304 -2.09510916 5.21082201 -6.3125 7.25 C-7.38113281 7.77078125 -8.44976562 8.2915625 -9.55078125 8.828125 C-10.76314453 9.40820312 -10.76314453 9.40820312 -12 10 C-12 9.34 -12 8.68 -12 8 C-11.34 8 -10.68 8 -10 8 C-9.67 6.68 -9.34 5.36 -9 4 C-7.02 4 -5.04 4 -3 4 C-3 3.34 -3 2.68 -3 2 C-2.01 2 -1.02 2 0 2 C0 1.34 0 0.68 0 0 Z " fill="#F7E07D" transform="translate(268,281)"/>
<path d="M0 0 C0.33 0 0.66 0 1 0 C2.23786913 9.12928486 -2.01882571 14.80620588 -7 22 C-7.61328125 20.203125 -7.61328125 20.203125 -8 18 C-6.1875 14.75 -6.1875 14.75 -4 12 C-3.34 12 -2.68 12 -2 12 C-1.34 8.04 -0.68 4.08 0 0 Z " fill="#1B90A2" transform="translate(449,254)"/>
<path d="M0 0 C0.99 0.33 1.98 0.66 3 1 C0.71296692 2.19725883 -1.57884862 3.38297018 -3.875 4.5625 C-4.52597656 4.90474609 -5.17695313 5.24699219 -5.84765625 5.59960938 C-7.53529857 6.46082891 -9.26579593 7.23686703 -11 8 C-11.66 7.67 -12.32 7.34 -13 7 C-12.34 5.35 -11.68 3.7 -11 2 C-10.113125 2.226875 -9.22625 2.45375 -8.3125 2.6875 C-4.36615802 3.05979641 -3.23234401 2.09665557 0 0 Z " fill="#1890A6" transform="translate(343,367)"/>
<path d="M0 0 C-1.12104533 1.31587941 -2.24696965 2.62760353 -3.375 3.9375 C-4.00148438 4.66839844 -4.62796875 5.39929688 -5.2734375 6.15234375 C-7 8 -7 8 -9 9 C-8.65547129 3.65980498 -8.65547129 3.65980498 -8 1 C-5.14541269 -1.46085113 -3.43414646 -0.97192824 0 0 Z " fill="#128FA7" transform="translate(323,315)"/>
<path d="M0 0 C5.29012124 4.40843437 10.18808428 9.07559794 15 14 C14.34 14.66 13.68 15.32 13 16 C12.54109375 15.44570313 12.0821875 14.89140625 11.609375 14.3203125 C10.99578125 13.59585937 10.3821875 12.87140625 9.75 12.125 C9.14671875 11.40570313 8.5434375 10.68640625 7.921875 9.9453125 C6.12725288 7.91644514 6.12725288 7.91644514 3.84375 6.9375 C2 6 2 6 0.75 2.875 C0.5025 1.92625 0.255 0.9775 0 0 Z " fill="#1F92A2" transform="translate(105,301)"/>
<path d="M0 0 C4.41241821 5.41524053 5.29649747 9.91962095 5.125 16.8125 C5.11597656 17.50537109 5.10695313 18.19824219 5.09765625 18.91210938 C5.07426157 20.60822395 5.03839641 22.30415871 5 24 C4.67 24 4.34 24 4 24 C3.87882812 23.10539062 3.75765625 22.21078125 3.6328125 21.2890625 C2.64162794 14.13728469 1.52854643 7.05733138 0 0 Z " fill="#1E8FA7" transform="translate(316,232)"/>
<path d="M0 0 C2.25 0 2.25 0 5 1 C6.23119674 2.90235453 7.10626552 4.84932093 8.01953125 6.921875 C9.29504888 9.62536256 11.03943513 11.75935443 13 14 C12.67 14.66 12.34 15.32 12 16 C9.99608502 13.52397473 7.99753584 11.04367345 6 8.5625 C5.42765625 7.85544922 4.8553125 7.14839844 4.265625 6.41992188 C3.72421875 5.74638672 3.1828125 5.07285156 2.625 4.37890625 C2.12226563 3.7557251 1.61953125 3.13254395 1.1015625 2.49047852 C0 1 0 1 0 0 Z " fill="#1B8FA9" transform="translate(399,220)"/>
<path d="M0 0 C3.67230705 3.07999946 4.56802365 5.2482602 5 10 C3.87105124 9.06725891 2.74699124 8.12859878 1.625 7.1875 C0.99851562 6.66542969 0.37203125 6.14335937 -0.2734375 5.60546875 C-2 4 -2 4 -4 1 C-2.68 1.33 -1.36 1.66 0 2 C0 1.34 0 0.68 0 0 Z " fill="#0E93A6" transform="translate(91,313)"/>
<path d="M0 0 C0.66 0.33 1.32 0.66 2 1 C2 1.66 2 2.32 2 3 C3.65 3.33 5.3 3.66 7 4 C7.33 5.32 7.66 6.64 8 8 C3.49197399 6.74194623 0.5087188 5.09592835 -3 2 C-2.01 1.34 -1.02 0.68 0 0 Z " fill="#1194A7" transform="translate(149,361)"/>
<path d="M0 0 C1.32 0.33 2.64 0.66 4 1 C4 1.66 4 2.32 4 3 C4.66 3 5.32 3 6 3 C7.37073786 4.63604196 8.70055256 6.30678061 10 8 C10.98230498 9.0173873 11.97469597 10.02596117 13 11 C12.67 11.99 12.34 12.98 12 14 C10.18472893 12.04417252 8.37271109 10.08550123 6.5625 8.125 C6.04623047 7.56941406 5.52996094 7.01382813 4.99804688 6.44140625 C1.11328125 2.2265625 1.11328125 2.2265625 0 0 Z " fill="#198EA3" transform="translate(295,203)"/>
<path d="M0 0 C4.18423892 3.50897269 8.19588166 7.08060535 12 11 C11.67 11.66 11.34 12.32 11 13 C9.824375 12.01 9.824375 12.01 8.625 11 C6.28487188 8.79798559 6.28487188 8.79798559 4 9 C2.47551369 6.0173094 1.06059933 3.181798 0 0 Z " fill="#1490A0" transform="translate(310,188)"/>
<path d="M0 0 C1.43655854 -0.08131463 2.8744483 -0.13933559 4.3125 -0.1875 C5.51326172 -0.23970703 5.51326172 -0.23970703 6.73828125 -0.29296875 C9.51953174 0.06729686 10.20935215 0.91785134 12 3 C14.09989652 4.17574711 14.09989652 4.17574711 16 5 C16 5.66 16 6.32 16 7 C10.55123997 5.27933894 5.28830549 3.15294651 0 1 C0 0.67 0 0.34 0 0 Z " fill="#1A90A7" transform="translate(309,156)"/>
<path d="M0 0 C0.33 0.66 0.66 1.32 1 2 C1.66 2.33 2.32 2.66 3 3 C2.54625 3.4125 2.0925 3.825 1.625 4.25 C-0.05950374 6.06408095 -0.99265971 7.75285627 -2 10 C-3.32 10 -4.64 10 -6 10 C-4.34832443 6.4213696 -2.21713508 3.25179812 0 0 Z " fill="#1191A8" transform="translate(421,267)"/>
<path d="M0 0 C0 2.97077176 -0.08214652 5.17583545 -1 8 C-3.4375 9.875 -3.4375 9.875 -6 11 C-6.66 10.67 -7.32 10.34 -8 10 C-5.36 6.7 -2.72 3.4 0 0 Z " fill="#1392AB" transform="translate(414,277)"/>
<path d="M0 0 C0.99 0.33 1.98 0.66 3 1 C3 1.66 3 2.32 3 3 C3.763125 2.67 4.52625 2.34 5.3125 2 C8 1 8 1 11 1 C10.67 1.99 10.34 2.98 10 4 C9.01 4 8.02 4 7 4 C6.67 5.65 6.34 7.3 6 9 C3.59927045 6.11912454 1.52708963 3.43595166 0 0 Z " fill="#1292A5" transform="translate(420,248)"/>
<path d="M0 0 C0.99 0.495 0.99 0.495 2 1 C2.33333333 2.66666667 2.66666667 4.33333333 3 6 C3.66 6.33 4.32 6.66 5 7 C5.4140625 9.06640625 5.4140625 9.06640625 5.625 11.5625 C5.69976562 12.38878906 5.77453125 13.21507812 5.8515625 14.06640625 C5.90054688 14.70449219 5.94953125 15.34257812 6 16 C1.96190932 11.38503922 0 6.07147123 0 0 Z " fill="#1891A3" transform="translate(161,282)"/>
<path d="M0 0 C5.69305433 1.23876645 11.35370013 2.56276003 17 4 C17 4.33 17 4.66 17 5 C15.10353002 4.88506243 13.20781668 4.75760358 11.3125 4.625 C10.25675781 4.55539062 9.20101562 4.48578125 8.11328125 4.4140625 C5.09322731 4.01239911 2.75921946 3.25930981 0 2 C0 1.34 0 0.68 0 0 Z " fill="#1990A4" transform="translate(221,323)"/>
<path d="M0 0 C4.8274799 1.41292095 8.7162359 3.42974154 13 6 C12.01 6.66 11.02 7.32 10 8 C10 7.34 10 6.68 10 6 C8.3603125 5.9071875 8.3603125 5.9071875 6.6875 5.8125 C3 5 3 5 1.0625 2.4375 C0.711875 1.633125 0.36125 0.82875 0 0 Z " fill="#F6DF7C" transform="translate(250,223)"/>
<path d="M0 0 C-0.91523438 0.42152344 -1.83046875 0.84304687 -2.7734375 1.27734375 C-3.96195313 1.82519531 -5.15046875 2.37304688 -6.375 2.9375 C-7.55835938 3.48277344 -8.74171875 4.02804688 -9.9609375 4.58984375 C-11.6499011 5.37354023 -13.33464041 6.1673202 -15 7 C-15.66 6.34 -16.32 5.68 -17 5 C-14.73392948 3.96724659 -12.46318061 2.94866449 -10.1875 1.9375 C-9.22360352 1.49567383 -9.22360352 1.49567383 -8.24023438 1.04492188 C-3.33984375 -1.11328125 -3.33984375 -1.11328125 0 0 Z " fill="#1790A7" transform="translate(223,171)"/>
<path d="M0 0 C0 0.66 0 1.32 0 2 C-0.99 2.33 -1.98 2.66 -3 3 C-3.804375 3.86625 -4.60875 4.7325 -5.4375 5.625 C-6.283125 6.40875 -7.12875 7.1925 -8 8 C-10.16015625 7.6484375 -10.16015625 7.6484375 -12 7 C-10.3790787 5.82767315 -8.75313167 4.6622923 -7.125 3.5 C-6.22007812 2.8503125 -5.31515625 2.200625 -4.3828125 1.53125 C-2 0 -2 0 0 0 Z " fill="#1391A7" transform="translate(206,177)"/>
<path d="M0 0 C0 3.60352128 -1.08590249 5.01400788 -3 8 C-3.33 8.66 -3.66 9.32 -4 10 C-5.32 10 -6.64 10 -8 10 C-6.34908222 5.70761377 -3.26245434 3.1206085 0 0 Z " fill="#188DA7" transform="translate(96,192)"/>
<path d="M0 0 C0.66 0.33 1.32 0.66 2 1 C0.75 3.4375 0.75 3.4375 -1 6 C-3 6.625 -3 6.625 -5 7 C-6.73026102 8.47890069 -6.73026102 8.47890069 -8 10 C-8.66 9.67 -9.32 9.34 -10 9 C-6.7 6.03 -3.4 3.06 0 0 Z " fill="#158EA8" transform="translate(119,171)"/>
<path d="M0 0 C0.66 0.99 1.32 1.98 2 3 C1.34 4.32 0.68 5.64 0 7 C-0.66 6.67 -1.32 6.34 -2 6 C-1.67 6.99 -1.34 7.98 -1 9 C-2.32 9.33 -3.64 9.66 -5 10 C-3.66511872 6.40608886 -2.03977277 3.24509304 0 0 Z " fill="#1591AD" transform="translate(313,289)"/>
<path d="M0 0 C1.32 1.65 2.64 3.3 4 5 C1.69 6.65 -0.62 8.3 -3 10 C-3 8.68 -3 7.36 -3 6 C-1.68 6 -0.36 6 1 6 C0.01 4.68 -0.98 3.36 -2 2 C-1.34 1.34 -0.68 0.68 0 0 Z " fill="#1292A7" transform="translate(139,177)"/>
<path d="M0 0 C3.93673644 1.31224548 6.22719294 2.91910327 9 6 C6.03 6 3.06 6 0 6 C0.33 4.68 0.66 3.36 1 2 C0.67 1.34 0.34 0.68 0 0 Z " fill="#1090A7" transform="translate(362,159)"/>
<path d="M0 0 C2.31 0.66 4.62 1.32 7 2 C3.39948847 4.40034102 0.03855465 6.32187705 -4.375 5.625 C-4.91125 5.41875 -5.4475 5.2125 -6 5 C-5 4 -5 4 -2.4375 3.9375 C-1.2309375 3.9684375 -1.2309375 3.9684375 0 4 C0 2.68 0 1.36 0 0 Z " fill="#1991AB" transform="translate(307,379)"/>
<path d="M0 0 C0.556875 0.268125 1.11375 0.53625 1.6875 0.8125 C0.6875 3.8125 0.6875 3.8125 -1.16015625 4.76171875 C-1.89105469 5.00535156 -2.62195313 5.24898438 -3.375 5.5 C-4.47521484 5.87705078 -4.47521484 5.87705078 -5.59765625 6.26171875 C-6.16355469 6.44347656 -6.72945313 6.62523437 -7.3125 6.8125 C-7.3125 4.8125 -7.3125 4.8125 -5.0625 2.125 C-2.3125 -0.1875 -2.3125 -0.1875 0 0 Z " fill="#1393AF" transform="translate(286.3125,339.1875)"/>
<path d="M0 0 C0 0.99 0 1.98 0 3 C-2.5 5.1875 -2.5 5.1875 -5 7 C-5.33 5.02 -5.66 3.04 -6 1 C-4.02 0.67 -2.04 0.34 0 0 Z " fill="#1092A7" transform="translate(418,306)"/>
<path d="M0 0 C0 0.66 0 1.32 0 2 C-1.63631892 3.04892238 -3.30485863 4.04906703 -5 5 C-5.33 5.33 -5.66 5.66 -6 6 C-7.99958364 6.04080783 -10.00045254 6.04254356 -12 6 C-8.59780735 3.25207517 -4.51535412 0 0 0 Z " fill="#1591AA" transform="translate(166,143)"/>
<path d="M0 0 C-2.64 1.98 -5.28 3.96 -8 6 C-7.67 4.02 -7.34 2.04 -7 0 C-4 -1 -4 -1 0 0 Z " fill="#1292A4" transform="translate(387,340)"/>
<path d="M0 0 C0.66 0.66 1.32 1.32 2 2 C1.01 2.33 0.02 2.66 -1 3 C-1 3.99 -1 4.98 -1 6 C-3.31 6.33 -5.62 6.66 -8 7 C-5.4837822 4.39391727 -2.94865641 2.10618315 0 0 Z " fill="#168EA9" transform="translate(355,335)"/>
<path d="M0 0 C0.66 0.33 1.32 0.66 2 1 C-0.75 5.875 -0.75 5.875 -3 7 C-3.33 7.99 -3.66 8.98 -4 10 C-4.99 10 -5.98 10 -7 10 C-5.33248852 6.05860922 -2.77289351 3.2107188 0 0 Z " fill="#1391A9" transform="translate(184,192)"/>
<path d="M0 0 C-3.67259383 2.44839588 -6.54648201 4 -11 4 C-11 2 -11 2 -10 0.3125 C-6.70980593 -1.84668986 -3.77762382 -0.68121085 0 0 Z " fill="#1A90A4" transform="translate(194,155)"/>
<path d="M0 0 C1.32 0 2.64 0 4 0 C4.2475 0.5775 4.495 1.155 4.75 1.75 C6.16683317 4.3002997 7.87627537 6.01785701 10 8 C7 8 7 8 5.17578125 6.50390625 C4.56089844 5.86324219 3.94601563 5.22257812 3.3125 4.5625 C2.68988281 3.92441406 2.06726563 3.28632813 1.42578125 2.62890625 C0 1 0 1 0 0 Z " fill="#1A90A2" transform="translate(102,329)"/>
<path d="M0 0 C3.26008643 3.16952847 6.22237877 6.39937989 9 10 C5.55261628 8.46782946 2.74690118 6.59429556 0 4 C0 2.68 0 1.36 0 0 Z " fill="#198EA6" transform="translate(92,286)"/>
<path d="M0 0 C-0.33 0.99 -0.66 1.98 -1 3 C-4.41270242 4.51675663 -7.44169126 3.72783588 -11 3 C-7.25667087 0.99464511 -4.26323685 0 0 0 Z " fill="#1391A8" transform="translate(234,167)"/>
<path d="M0 0 C0 0.66 0 1.32 0 2 C0.66 2 1.32 2 2 2 C2 2.66 2 3.32 2 4 C-4.625 3.25 -4.625 3.25 -8 1 C-2.25 0 -2.25 0 0 0 Z " fill="#1392AC" transform="translate(190,379)"/>
<path d="M0 0 C0.33 0.66 0.66 1.32 1 2 C-0.32 3.65 -1.64 5.3 -3 7 C-4.32 6.67 -5.64 6.34 -7 6 C-4.69 4.02 -2.38 2.04 0 0 Z " fill="#158FA5" transform="translate(371,323)"/>
<path d="M0 0 C2.64 1.65 5.28 3.3 8 5 C4.71023192 6.09658936 3.28696233 5.79953138 0 5 C0 3.35 0 1.7 0 0 Z " fill="#138FA4" transform="translate(203,311)"/>
<path d="M0 0 C0.66 0 1.32 0 2 0 C1.34 3.3 0.68 6.6 0 10 C-2.1519437 6.77208445 -2.20086443 5.71599191 -2 2 C-1.34 2 -0.68 2 0 2 C0 1.34 0 0.68 0 0 Z " fill="#1390A9" transform="translate(181,235)"/>
<path d="M0 0 C0.66 0.33 1.32 0.66 2 1 C0.02 3.97 0.02 3.97 -2 7 C-3.32 6.67 -4.64 6.34 -6 6 C-4.02 4.02 -2.04 2.04 0 0 Z " fill="#1A8CA7" transform="translate(106,182)"/>
<path d="M0 0 C3.36591866 1.44253657 5.51047079 3.33264727 8 6 C7.38125 5.814375 6.7625 5.62875 6.125 5.4375 C3.95839822 4.76313824 3.95839822 4.76313824 2 6 C1.34 5.34 0.68 4.68 0 4 C0 2.68 0 1.36 0 0 Z " fill="#1390A5" transform="translate(131,326)"/>
<path d="M0 0 C0.33 0.66 0.66 1.32 1 2 C1.66 2 2.32 2 3 2 C1.25 7.75 1.25 7.75 -1 10 C-1.33 8.68 -1.66 7.36 -2 6 C-1.34 6 -0.68 6 0 6 C-0.2784375 4.7934375 -0.2784375 4.7934375 -0.5625 3.5625 C-0.706875 2.716875 -0.85125 1.87125 -1 1 C-0.67 0.67 -0.34 0.34 0 0 Z " fill="#1291A5" transform="translate(332,292)"/>
<path d="M0 0 C0 3 0 3 -2.5 5.6875 C-3.325 6.450625 -4.15 7.21375 -5 8 C-5 6.35 -5 4.7 -5 3 C-4.34 3 -3.68 3 -3 3 C-3 2.34 -3 1.68 -3 1 C-2.01 0.67 -1.02 0.34 0 0 Z " fill="#1392AA" transform="translate(94,226)"/>
<path d="M0 0 C0.6875 1.8125 0.6875 1.8125 1 4 C-0.375 5.5625 -0.375 5.5625 -2 7 C-2.33 7.99 -2.66 8.98 -3 10 C-3.66 10 -4.32 10 -5 10 C-3.66511872 6.40608886 -2.03977277 3.24509304 0 0 Z " fill="#178FA4" transform="translate(171,209)"/>
<path d="M0 0 C1.32 0.66 2.64 1.32 4 2 C0.535 4.97 0.535 4.97 -3 8 C-3 6.68 -3 5.36 -3 4 C-2.01 4 -1.02 4 0 4 C0 2.68 0 1.36 0 0 Z " fill="#198EA4" transform="translate(115,200)"/>
<path d="M0 0 C-3.38274266 1.12758089 -4.76778223 0.81750262 -8.1875 0.0625 C-9.08855469 -0.13214844 -9.98960937 -0.32679688 -10.91796875 -0.52734375 C-11.60503906 -0.68332031 -12.29210937 -0.83929688 -13 -1 C-13 -1.33 -13 -1.66 -13 -2 C-7.55106131 -3.19876651 -4.77830905 -2.91360308 0 0 Z " fill="#1E91A8" transform="translate(291,150)"/>
<path d="M0 0 C1.65 0.33 3.3 0.66 5 1 C3.68 2.65 2.36 4.3 1 6 C0.34 5.67 -0.32 5.34 -1 5 C-0.67 3.35 -0.34 1.7 0 0 Z " fill="#0F91A9" transform="translate(308,324)"/>
<path d="M0 0 C0.66 0 1.32 0 2 0 C2 0.66 2 1.32 2 2 C2.66 2.33 3.32 2.66 4 3 C2.68 4.32 1.36 5.64 0 7 C-0.38133299 5.0085944 -0.71325582 3.00720923 -1 1 C-0.67 0.67 -0.34 0.34 0 0 Z " fill="#0E92A9" transform="translate(428,288)"/>
<path d="M0 0 C4.42857143 5.14285714 4.42857143 5.14285714 5 9 C4.34 9 3.68 9 3 9 C3 8.34 3 7.68 3 7 C2.34 7 1.68 7 1 7 C0.67 4.69 0.34 2.38 0 0 Z " fill="#1392A4" transform="translate(73,258)"/>
<path d="M0 0 C4.875 4.75 4.875 4.75 6 7 C5.01 7.33 4.02 7.66 3 8 C0.4345406 5.4345406 0.45953913 3.52313332 0 0 Z " fill="#1191A5" transform="translate(425,218)"/>
<path d="M0 0 C3.59391114 1.33488128 6.75490696 2.96022723 10 5 C7 6 7 6 5.17578125 5.22265625 C3.45052083 4.1484375 1.72526042 3.07421875 0 2 C0 1.34 0 0.68 0 0 Z " fill="#F6E084" transform="translate(240,217)"/>
<path d="M0 0 C2.97 0.495 2.97 0.495 6 1 C5 3 5 3 1.9375 4.125 C0.4834375 4.558125 0.4834375 4.558125 -1 5 C-1 2 -1 2 0 0 Z " fill="#0B95A8" transform="translate(274,169)"/>
<path d="M0 0 C0.99 0.99 1.98 1.98 3 3 C2.34 3.66 1.68 4.32 1 5 C1.33 5.66 1.66 6.32 2 7 C-1.875 5.25 -1.875 5.25 -3 3 C-2.01 2.01 -1.02 1.02 0 0 Z " fill="#0D92A9" transform="translate(116,336)"/>
<path d="M0 0 C2.7839183 1.39195915 2.97898997 3.15575779 4 6 C0.34683329 4.75023244 -0.78065836 4.32901247 -3 1 C-2.01 0.67 -1.02 0.34 0 0 Z " fill="#1191A4" transform="translate(197,330)"/>
<path d="M0 0 C2.475 0.99 2.475 0.99 5 2 C5 3.98 5 5.96 5 8 C2.27573689 5.64722731 1.1858237 3.37503669 0 0 Z " fill="#1991A7" transform="translate(167,299)"/>
<path d="M0 0 C2.31 1.98 4.62 3.96 7 6 C6.67 6.66 6.34 7.32 6 8 C4.125 7.375 4.125 7.375 2 6 C0.75 2.875 0.75 2.875 0 0 Z " fill="#198FA5" transform="translate(410,200)"/>
<path d="M0 0 C3.3 0.99 6.6 1.98 10 3 C10 3.33 10 3.66 10 4 C7.36 4 4.72 4 2 4 C1.34 2.68 0.68 1.36 0 0 Z " fill="#188DA6" transform="translate(314,135)"/>
<path d="M0 0 C2.31 1.98 4.62 3.96 7 6 C5 7 5 7 2.9375 6.375 C1 5 1 5 0.25 2.375 C0.1675 1.59125 0.085 0.8075 0 0 Z " fill="#1F8EA7" transform="translate(194,302)"/>
<path d="M0 0 C0.33 1.32 0.66 2.64 1 4 C-0.98 5.32 -2.96 6.64 -5 8 C-3.62845496 5.04590299 -2.01136276 2.55991624 0 0 Z " fill="#168FA1" transform="translate(69,224)"/>
<path d="M0 0 C-5.2734375 3.22265625 -5.2734375 3.22265625 -7 4 C-7.66 3.67 -8.32 3.34 -9 3 C-7 0 -7 0 -5.0625 -0.75 C-3 -1 -3 -1 0 0 Z " fill="#19919F" transform="translate(161,171)"/>
</svg>
